# xmcd
#
# Track frame offsets:
#	150
#	16205
#	30410
#	51590
#	63835
#	77753
#	94946
#	123503
#	130340
#
# Disc length: 1863 seconds
#
# Revision: 0
# Processed by: cddbd v1.5.2PL0 Copyright (c) Steve Scherf et al.
# Submitted via: EZCDAudioConverter 4.0.5.1
#
DISCID=72074509
DTITLE=Mopo and Ville Leinonen - Laivalla
DYEAR=2016
DGENRE=
TTITLE0=Kuka tätä laivaa ohjaa
TTITLE1=Älä hämää elämää
TTITLE2=Maan lapset
TTITLE3=Masussa potkii
TTITLE4=Naapurille
TTITLE5=Metsän kuningas
TTITLE6=Purppuraa
TTITLE7=. . - -  - . . .
TTITLE8=Pienen pieni pyyntö
EXTD=
EXTT0=
EXTT1=
EXTT2=
EXTT3=
EXTT4=
EXTT5=
EXTT6=
EXTT7=
EXTT8=
PLAYORDER=
